<svg xmlns="http://www.w3.org/2000/svg" width="472" height="201" viewBox="0 0 472 201" version="1.1"><path d="M 48.035 5.700 C 48.171 16.662, 53.800 32.660, 59.343 37.843 C 62.833 41.105, 73.045 46.907, 79.339 49.203 C 85.071 51.294, 85.165 51.390, 84.447 54.416 C 84.045 56.112, 83.601 81.732, 83.460 111.348 C 83.301 144.618, 82.831 165.569, 82.229 166.171 C 81.693 166.707, 79.766 167, 77.947 166.823 L 74.641 166.500 74.895 143.945 C 75.416 97.686, 69.753 82.240, 48.500 71.948 C 38.635 67.171, 30.371 65.871, 26.401 68.473 C 23.922 70.097, 23.780 70.583, 24.303 75.644 C 25.155 83.900, 31.189 95.185, 38.991 103.115 C 44.741 108.960, 46.374 110.009, 53 112.115 L 60.500 114.500 60.767 140.750 L 61.033 167 33.217 167 C 12.915 167, 5.076 167.324, 4.200 168.200 C 2.852 169.548, 2.607 175.832, 3.828 177.756 C 4.459 178.750, 22.574 178.958, 91.062 178.756 L 177.500 178.500 177.500 173 L 177.500 167.500 155 167.839 C 142.625 168.025, 129.629 167.871, 126.121 167.495 L 119.742 166.813 120.497 146.157 C 121.419 120.920, 121.296 110.834, 119.982 103.905 C 118.774 97.537, 119.100 97.111, 127.500 94.052 C 140.885 89.178, 145.166 84.873, 151.785 69.639 C 154.455 63.492, 155.343 60.031, 155.410 55.500 L 155.500 49.500 151.210 49.191 C 148.851 49.020, 144.370 49.623, 141.253 50.529 C 127.398 54.557, 117.310 62.620, 112.189 73.759 C 105.225 88.909, 103.587 103.357, 104.589 140.824 L 105.293 167.149 101.897 166.824 L 98.500 166.500 97.955 103.500 C 97.390 38.239, 97.427 38.811, 93.070 28.675 C 90.860 23.535, 85.060 16.490, 79.936 12.722 C 74.859 8.988, 62.055 4.432, 54.250 3.582 L 48 2.901 48.035 5.700 M 239.270 23.991 C 228.700 26.235, 220.756 32.452, 219.431 39.519 C 217.262 51.076, 227.393 61.026, 242.986 62.656 C 249.338 63.320, 252.326 65.067, 251.798 67.808 C 251.248 70.664, 245.401 71.271, 236.616 69.383 C 232.152 68.424, 226.929 67.608, 225.009 67.570 C 221.880 67.507, 221.400 67.863, 220.378 70.999 C 218.512 76.727, 221.997 82.707, 228.883 85.592 C 233.910 87.698, 247.536 88.457, 255.571 87.080 C 269.983 84.609, 274.683 80.169, 275.697 68.069 L 276.286 61.051 272.393 57.179 C 268.242 53.050, 261.322 50.011, 249.753 47.234 C 243.858 45.819, 242.955 45.310, 243.207 43.546 C 243.450 41.849, 244.352 41.445, 248.500 41.178 C 251.250 41.001, 257.087 41.378, 261.470 42.015 C 269.169 43.134, 269.501 43.099, 271.220 40.976 C 275.631 35.529, 271.687 27.467, 263.421 25.035 C 258.124 23.476, 244.475 22.886, 239.270 23.991 M 306.500 24.401 C 296.252 26.925, 288.203 32.906, 283.780 41.285 C 280.703 47.115, 280.642 61.326, 283.665 68.051 C 291.174 84.751, 311.509 91.861, 331.817 84.887 C 339.618 82.209, 344.416 77.932, 348.165 70.316 C 351.016 64.526, 351.398 62.780, 351.381 55.623 C 351.339 38.074, 341.115 26.989, 322.308 24.104 C 313.766 22.793, 312.972 22.808, 306.500 24.401 M 379.500 24.422 C 371.333 26.314, 364.995 29.224, 362 32.458 C 359.526 35.129, 359.497 35.369, 359.179 55.828 C 358.819 79.024, 359.514 83.485, 363.739 85.091 C 365.186 85.641, 369.887 86.362, 374.185 86.694 L 382 87.296 382 65.123 L 382 42.950 384.565 41.975 C 388.995 40.291, 392.920 40.829, 395.577 43.486 L 398.063 45.972 397.454 61.736 C 396.911 75.797, 397.043 77.878, 398.673 81 C 400.949 85.359, 405.972 87.203, 414.458 86.792 L 420.500 86.500 420.769 64.264 L 421.038 42.029 423.364 41.445 C 424.644 41.124, 427.437 41.005, 429.572 41.180 C 435.443 41.664, 435.968 43.516, 435.985 63.795 C 436 80.657, 436.060 81.150, 438.374 83.465 C 440.992 86.083, 446.831 87.337, 454 86.823 L 458.500 86.500 458.769 63.105 C 459.023 40.945, 458.925 39.476, 456.898 35.289 C 454.109 29.527, 449.152 26.346, 439.924 24.395 C 431.442 22.602, 424.634 23.057, 416.343 25.971 C 410.860 27.898, 410.814 27.897, 405.668 25.854 C 399.065 23.233, 387.390 22.593, 379.500 24.422 M 184.035 34.306 C 176.903 36.763, 173.893 46.032, 178.026 52.810 C 182.282 59.791, 191.598 60.602, 197.679 54.521 C 200.549 51.651, 201 50.525, 201 46.235 C 201 40.417, 198.491 36.521, 193.364 34.379 C 189.455 32.745, 188.586 32.739, 184.035 34.306 M 184.500 35.899 C 180.461 37.646, 178.500 40.974, 178.500 46.082 C 178.500 52.251, 181.684 55.880, 187.819 56.703 C 191.548 57.203, 192.283 56.917, 195.472 53.728 C 198.358 50.842, 199 49.456, 199 46.116 C 199 38.757, 190.971 33.100, 184.500 35.899 M 183 46 C 183 50, 183.429 53, 184 53 C 184.550 53, 185 51.902, 185 50.559 C 185 46.787, 186.784 46.549, 189.748 49.926 C 193.027 53.663, 194.877 53.988, 192.537 50.415 C 190.992 48.058, 190.982 47.678, 192.422 46.087 C 193.290 45.127, 194 43.848, 194 43.243 C 194 40.950, 190.750 39, 186.929 39 L 183 39 183 46 M 185 43.031 C 185 45.574, 187.211 46.493, 189.885 45.062 C 192.722 43.543, 191.475 41, 187.893 41 C 185.652 41, 185 41.458, 185 43.031 M 309.009 43.837 C 301.382 51.464, 306.247 70, 315.876 70 C 323.720 70, 328.592 63.151, 327.773 53.274 C 327.368 48.388, 326.842 47.243, 323.669 44.335 C 318.783 39.858, 313.179 39.667, 309.009 43.837 M 317.500 98.658 C 312.225 99.903, 309 101.252, 309 102.213 C 309 102.795, 310.125 104.313, 311.500 105.588 C 313.459 107.403, 314 108.886, 314 112.443 L 314 116.981 264.859 117.241 C 220.900 117.473, 215.610 117.670, 214.700 119.114 C 214.140 120.002, 213.964 121.464, 214.309 122.364 C 214.879 123.848, 219.534 124, 264.469 124 L 314 124 314.100 152.250 C 314.155 167.787, 314.509 181.609, 314.887 182.966 C 316.441 188.542, 328.550 191.491, 334.332 187.702 C 338.362 185.062, 337.819 182.298, 333.017 181.005 C 330.826 180.415, 328.576 179.077, 328.017 178.032 C 327.402 176.883, 327 165.821, 327 150.066 L 327 124 336.105 124 L 345.210 124 344.855 152.750 C 344.527 179.311, 344.639 181.705, 346.331 184.198 C 348.686 187.668, 355.817 190.445, 360.241 189.615 C 368.063 188.147, 370.788 182.243, 364.256 180.915 C 357.830 179.608, 358 180.425, 358 150.878 L 358 124 412.031 124 C 470.056 124, 468.740 124.120, 466.042 119.078 C 464.937 117.014, 464.576 117, 411.465 117 L 358 117 358 107.500 L 358 98 354.049 98 C 348.972 98, 340 99.917, 340 101.001 C 340 101.461, 339.727 102.548, 339.393 103.418 C 339.002 104.437, 339.332 105, 340.322 105 C 343.156 105, 345 107.984, 345 112.571 L 345 117 335.884 117 L 326.769 117 327.134 107.750 L 327.500 98.500 323.500 98.343 C 321.300 98.257, 318.600 98.399, 317.500 98.658 M 436.792 129.750 C 436.068 131.262, 433.360 133.644, 430.774 135.042 C 424.619 138.370, 421.075 141.719, 419.303 145.882 C 417.241 150.725, 418.580 151.569, 425.649 149.881 C 431.019 148.599, 431.483 148.260, 432.110 145.157 C 433.087 140.321, 434.095 139.679, 438.749 140.932 C 442.093 141.833, 442.855 142.524, 443.376 145.130 C 444.549 150.996, 444.145 153.149, 441.755 153.774 C 436.218 155.222, 423.934 162.330, 420.610 166.010 C 416.258 170.828, 415.927 174.571, 419.480 178.794 C 423.716 183.829, 426.915 184.550, 434.155 182.105 C 442.917 179.146, 443.790 179.284, 444.536 183.750 C 445.932 192.095, 448.080 197.972, 450.135 199.072 C 452.621 200.403, 460.166 199.483, 464.299 197.345 C 466.319 196.301, 467.035 195.260, 466.812 193.692 C 466.554 191.879, 465.951 191.555, 463.322 191.818 C 458.025 192.348, 457.521 190.271, 457.343 167.150 C 457.256 155.958, 456.896 145.257, 456.542 143.370 C 455.867 139.772, 451.189 135.564, 445.028 133.012 C 443.241 132.271, 441.727 130.762, 441.379 129.373 C 440.581 126.193, 438.410 126.371, 436.792 129.750 M 280.811 130.643 C 279.358 132.097, 275.993 134.460, 273.334 135.895 C 270.226 137.573, 267.340 140.240, 265.250 143.365 C 260.718 150.143, 260.905 151.422, 266.320 150.680 C 273.065 149.755, 276 148.324, 276 145.959 C 276 142.221, 277.877 140, 281.035 140 C 285.390 140, 288 143.118, 288 148.320 L 288 152.640 277.568 157.826 C 265.467 163.841, 263 166.366, 263 172.735 C 263 176.510, 263.544 177.744, 266.524 180.724 C 269.742 183.942, 270.401 184.192, 274.107 183.599 C 276.339 183.242, 280.335 181.850, 282.988 180.506 C 288.037 177.948, 289 178.309, 289 182.764 C 289 183.644, 289.949 187.882, 291.110 192.182 L 293.219 200 297.642 200 C 302.311 200, 308.905 197.748, 310.200 195.711 C 311.804 193.187, 310.975 192, 307.607 192 C 305.349 192, 303.944 191.414, 303.408 190.250 C 302.964 189.287, 302.341 178.375, 302.023 166 C 301.338 139.349, 300.995 138.214, 292.485 134.451 C 289.529 133.143, 286.619 131.157, 286.020 130.037 C 284.605 127.393, 283.989 127.465, 280.811 130.643 M 368.509 132.986 C 368.173 133.528, 369.022 135.891, 370.393 138.236 C 372.442 141.739, 377.943 155.821, 386.275 178.891 C 387.812 183.145, 390.326 184.903, 392.750 183.418 C 393.712 182.829, 396.750 178.100, 399.500 172.909 C 402.250 167.718, 406.863 159.750, 409.751 155.201 C 415.850 145.595, 418 140.849, 418 136.991 C 418 134.499, 417.575 134.163, 413.682 133.580 C 405.128 132.297, 397.245 137.332, 403.410 140.141 C 406.569 141.580, 406.317 143.005, 400.690 155.500 C 395.759 166.450, 395.492 166.788, 393.986 163.974 C 392.130 160.506, 387.807 143.945, 388.373 142.470 C 388.651 141.747, 389.918 141.008, 391.189 140.828 C 392.683 140.616, 393.611 139.717, 393.815 138.285 C 394.165 135.823, 394.516 135.955, 381.140 133.521 C 371.340 131.738, 369.332 131.653, 368.509 132.986 M 234.007 134.534 C 224.927 138.624, 220.710 147.211, 224.447 154 C 225.204 155.375, 229.547 158.975, 234.098 162 C 238.649 165.025, 243.277 168.738, 244.382 170.250 L 246.391 173 244.346 175.750 C 241.103 180.114, 237.037 179.951, 233.133 175.301 C 223.322 163.618, 224.141 164.302, 222.507 166.424 C 220.074 169.583, 219.562 174.683, 221.397 177.484 C 225.087 183.115, 237.545 185.640, 246.675 182.608 C 251.872 180.882, 257.294 176.109, 258.462 172.234 C 260.139 166.668, 253.371 157.739, 243.849 152.958 C 235.181 148.605, 232.826 144.174, 236.977 140.023 C 239.588 137.412, 241.481 138.174, 247.152 144.121 C 254.514 151.841, 256.439 150.386, 253.828 139.076 C 252.794 134.594, 252.355 133.999, 250.078 133.991 C 248.660 133.987, 245.250 133.753, 242.500 133.472 C 239.134 133.128, 236.359 133.475, 234.007 134.534 M 284.308 163.010 C 279.370 164.999, 277.369 172.965, 281.205 175.366 C 282.546 176.205, 283.454 175.922, 285.455 174.042 C 287.500 172.121, 288 170.703, 288 166.826 C 288 161.762, 287.833 161.590, 284.308 163.010 M 438.888 163.500 C 435.659 165.254, 433.663 169.809, 434.558 173.377 C 435.066 175.399, 435.697 175.930, 437.116 175.531 C 438.152 175.239, 439.900 174.745, 441 174.433 C 442.711 173.947, 443 173.009, 443 167.933 C 443 164.670, 442.663 162.018, 442.250 162.040 C 441.837 162.062, 440.325 162.719, 438.888 163.500" stroke="none" fill="#30302e" fill-rule="evenodd"/><path d="M 48.035 5.700 C 48.171 16.662, 53.800 32.660, 59.343 37.843 C 62.833 41.105, 73.045 46.907, 79.339 49.203 C 85.071 51.294, 85.165 51.390, 84.447 54.416 C 84.045 56.112, 83.601 81.732, 83.460 111.348 C 83.301 144.618, 82.831 165.569, 82.229 166.171 C 81.693 166.707, 79.766 167, 77.947 166.823 L 74.641 166.500 74.895 143.945 C 75.416 97.686, 69.753 82.240, 48.500 71.948 C 38.635 67.171, 30.371 65.871, 26.401 68.473 C 23.922 70.097, 23.780 70.583, 24.303 75.644 C 25.155 83.900, 31.189 95.185, 38.991 103.115 C 44.741 108.960, 46.374 110.009, 53 112.115 L 60.500 114.500 60.767 140.750 L 61.033 167 33.217 167 C 12.915 167, 5.076 167.324, 4.200 168.200 C 2.852 169.548, 2.607 175.832, 3.828 177.756 C 4.459 178.750, 22.574 178.958, 91.062 178.756 L 177.500 178.500 177.500 173 L 177.500 167.500 155 167.839 C 142.625 168.025, 129.629 167.871, 126.121 167.495 L 119.742 166.813 120.497 146.157 C 121.419 120.920, 121.296 110.834, 119.982 103.905 C 118.774 97.537, 119.100 97.111, 127.500 94.052 C 140.885 89.178, 145.166 84.873, 151.785 69.639 C 154.455 63.492, 155.343 60.031, 155.410 55.500 L 155.500 49.500 151.210 49.191 C 148.851 49.020, 144.370 49.623, 141.253 50.529 C 127.398 54.557, 117.310 62.620, 112.189 73.759 C 105.225 88.909, 103.587 103.357, 104.589 140.824 L 105.293 167.149 101.897 166.824 L 98.500 166.500 97.955 103.500 C 97.390 38.239, 97.427 38.811, 93.070 28.675 C 90.860 23.535, 85.060 16.490, 79.936 12.722 C 74.859 8.988, 62.055 4.432, 54.250 3.582 L 48 2.901 48.035 5.700 M 239.270 23.991 C 228.700 26.235, 220.756 32.452, 219.431 39.519 C 217.262 51.076, 227.393 61.026, 242.986 62.656 C 249.338 63.320, 252.326 65.067, 251.798 67.808 C 251.248 70.664, 245.401 71.271, 236.616 69.383 C 232.152 68.424, 226.929 67.608, 225.009 67.570 C 221.880 67.507, 221.400 67.863, 220.378 70.999 C 218.512 76.727, 221.997 82.707, 228.883 85.592 C 233.910 87.698, 247.536 88.457, 255.571 87.080 C 269.983 84.609, 274.683 80.169, 275.697 68.069 L 276.286 61.051 272.393 57.179 C 268.242 53.050, 261.322 50.011, 249.753 47.234 C 243.858 45.819, 242.955 45.310, 243.207 43.546 C 243.450 41.849, 244.352 41.445, 248.500 41.178 C 251.250 41.001, 257.087 41.378, 261.470 42.015 C 269.169 43.134, 269.501 43.099, 271.220 40.976 C 275.631 35.529, 271.687 27.467, 263.421 25.035 C 258.124 23.476, 244.475 22.886, 239.270 23.991 M 306.500 24.401 C 296.252 26.925, 288.203 32.906, 283.780 41.285 C 280.703 47.115, 280.642 61.326, 283.665 68.051 C 291.174 84.751, 311.509 91.861, 331.817 84.887 C 339.618 82.209, 344.416 77.932, 348.165 70.316 C 351.016 64.526, 351.398 62.780, 351.381 55.623 C 351.339 38.074, 341.115 26.989, 322.308 24.104 C 313.766 22.793, 312.972 22.808, 306.500 24.401 M 379.500 24.422 C 371.333 26.314, 364.995 29.224, 362 32.458 C 359.526 35.129, 359.497 35.369, 359.179 55.828 C 358.819 79.024, 359.514 83.485, 363.739 85.091 C 365.186 85.641, 369.887 86.362, 374.185 86.694 L 382 87.296 382 65.123 L 382 42.950 384.565 41.975 C 388.995 40.291, 392.920 40.829, 395.577 43.486 L 398.063 45.972 397.454 61.736 C 396.911 75.797, 397.043 77.878, 398.673 81 C 400.949 85.359, 405.972 87.203, 414.458 86.792 L 420.500 86.500 420.769 64.264 L 421.038 42.029 423.364 41.445 C 424.644 41.124, 427.437 41.005, 429.572 41.180 C 435.443 41.664, 435.968 43.516, 435.985 63.795 C 436 80.657, 436.060 81.150, 438.374 83.465 C 440.992 86.083, 446.831 87.337, 454 86.823 L 458.500 86.500 458.769 63.105 C 459.023 40.945, 458.925 39.476, 456.898 35.289 C 454.109 29.527, 449.152 26.346, 439.924 24.395 C 431.442 22.602, 424.634 23.057, 416.343 25.971 C 410.860 27.898, 410.814 27.897, 405.668 25.854 C 399.065 23.233, 387.390 22.593, 379.500 24.422 M 184.035 34.306 C 176.903 36.763, 173.893 46.032, 178.026 52.810 C 182.282 59.791, 191.598 60.602, 197.679 54.521 C 200.549 51.651, 201 50.525, 201 46.235 C 201 40.417, 198.491 36.521, 193.364 34.379 C 189.455 32.745, 188.586 32.739, 184.035 34.306 M 184.500 35.899 C 180.461 37.646, 178.500 40.974, 178.500 46.082 C 178.500 52.251, 181.684 55.880, 187.819 56.703 C 191.548 57.203, 192.283 56.917, 195.472 53.728 C 198.358 50.842, 199 49.456, 199 46.116 C 199 38.757, 190.971 33.100, 184.500 35.899 M 183 46 C 183 50, 183.429 53, 184 53 C 184.550 53, 185 51.902, 185 50.559 C 185 46.787, 186.784 46.549, 189.748 49.926 C 193.027 53.663, 194.877 53.988, 192.537 50.415 C 190.992 48.058, 190.982 47.678, 192.422 46.087 C 193.290 45.127, 194 43.848, 194 43.243 C 194 40.950, 190.750 39, 186.929 39 L 183 39 183 46 M 185 43.031 C 185 45.574, 187.211 46.493, 189.885 45.062 C 192.722 43.543, 191.475 41, 187.893 41 C 185.652 41, 185 41.458, 185 43.031 M 309.009 43.837 C 301.382 51.464, 306.247 70, 315.876 70 C 323.720 70, 328.592 63.151, 327.773 53.274 C 327.368 48.388, 326.842 47.243, 323.669 44.335 C 318.783 39.858, 313.179 39.667, 309.009 43.837 M 317.500 98.658 C 312.225 99.903, 309 101.252, 309 102.213 C 309 102.795, 310.125 104.313, 311.500 105.588 C 313.459 107.403, 314 108.886, 314 112.443 L 314 116.981 264.859 117.241 C 220.900 117.473, 215.610 117.670, 214.700 119.114 C 214.140 120.002, 213.964 121.464, 214.309 122.364 C 214.879 123.848, 219.534 124, 264.469 124 L 314 124 314.100 152.250 C 314.155 167.787, 314.509 181.609, 314.887 182.966 C 316.441 188.542, 328.550 191.491, 334.332 187.702 C 338.362 185.062, 337.819 182.298, 333.017 181.005 C 330.826 180.415, 328.576 179.077, 328.017 178.032 C 327.402 176.883, 327 165.821, 327 150.066 L 327 124 336.105 124 L 345.210 124 344.855 152.750 C 344.527 179.311, 344.639 181.705, 346.331 184.198 C 348.686 187.668, 355.817 190.445, 360.241 189.615 C 368.063 188.147, 370.788 182.243, 364.256 180.915 C 357.830 179.608, 358 180.425, 358 150.878 L 358 124 412.031 124 C 470.056 124, 468.740 124.120, 466.042 119.078 C 464.937 117.014, 464.576 117, 411.465 117 L 358 117 358 107.500 L 358 98 354.049 98 C 348.972 98, 340 99.917, 340 101.001 C 340 101.461, 339.727 102.548, 339.393 103.418 C 339.002 104.437, 339.332 105, 340.322 105 C 343.156 105, 345 107.984, 345 112.571 L 345 117 335.884 117 L 326.769 117 327.134 107.750 L 327.500 98.500 323.500 98.343 C 321.300 98.257, 318.600 98.399, 317.500 98.658 M 436.792 129.750 C 436.068 131.262, 433.360 133.644, 430.774 135.042 C 424.619 138.370, 421.075 141.719, 419.303 145.882 C 417.241 150.725, 418.580 151.569, 425.649 149.881 C 431.019 148.599, 431.483 148.260, 432.110 145.157 C 433.087 140.321, 434.095 139.679, 438.749 140.932 C 442.093 141.833, 442.855 142.524, 443.376 145.130 C 444.549 150.996, 444.145 153.149, 441.755 153.774 C 436.218 155.222, 423.934 162.330, 420.610 166.010 C 416.258 170.828, 415.927 174.571, 419.480 178.794 C 423.716 183.829, 426.915 184.550, 434.155 182.105 C 442.917 179.146, 443.790 179.284, 444.536 183.750 C 445.932 192.095, 448.080 197.972, 450.135 199.072 C 452.621 200.403, 460.166 199.483, 464.299 197.345 C 466.319 196.301, 467.035 195.260, 466.812 193.692 C 466.554 191.879, 465.951 191.555, 463.322 191.818 C 458.025 192.348, 457.521 190.271, 457.343 167.150 C 457.256 155.958, 456.896 145.257, 456.542 143.370 C 455.867 139.772, 451.189 135.564, 445.028 133.012 C 443.241 132.271, 441.727 130.762, 441.379 129.373 C 440.581 126.193, 438.410 126.371, 436.792 129.750 M 280.811 130.643 C 279.358 132.097, 275.993 134.460, 273.334 135.895 C 270.226 137.573, 267.340 140.240, 265.250 143.365 C 260.718 150.143, 260.905 151.422, 266.320 150.680 C 273.065 149.755, 276 148.324, 276 145.959 C 276 142.221, 277.877 140, 281.035 140 C 285.390 140, 288 143.118, 288 148.320 L 288 152.640 277.568 157.826 C 265.467 163.841, 263 166.366, 263 172.735 C 263 176.510, 263.544 177.744, 266.524 180.724 C 269.742 183.942, 270.401 184.192, 274.107 183.599 C 276.339 183.242, 280.335 181.850, 282.988 180.506 C 288.037 177.948, 289 178.309, 289 182.764 C 289 183.644, 289.949 187.882, 291.110 192.182 L 293.219 200 297.642 200 C 302.311 200, 308.905 197.748, 310.200 195.711 C 311.804 193.187, 310.975 192, 307.607 192 C 305.349 192, 303.944 191.414, 303.408 190.250 C 302.964 189.287, 302.341 178.375, 302.023 166 C 301.338 139.349, 300.995 138.214, 292.485 134.451 C 289.529 133.143, 286.619 131.157, 286.020 130.037 C 284.605 127.393, 283.989 127.465, 280.811 130.643 M 368.509 132.986 C 368.173 133.528, 369.022 135.891, 370.393 138.236 C 372.442 141.739, 377.943 155.821, 386.275 178.891 C 387.812 183.145, 390.326 184.903, 392.750 183.418 C 393.712 182.829, 396.750 178.100, 399.500 172.909 C 402.250 167.718, 406.863 159.750, 409.751 155.201 C 415.850 145.595, 418 140.849, 418 136.991 C 418 134.499, 417.575 134.163, 413.682 133.580 C 405.128 132.297, 397.245 137.332, 403.410 140.141 C 406.569 141.580, 406.317 143.005, 400.690 155.500 C 395.759 166.450, 395.492 166.788, 393.986 163.974 C 392.130 160.506, 387.807 143.945, 388.373 142.470 C 388.651 141.747, 389.918 141.008, 391.189 140.828 C 392.683 140.616, 393.611 139.717, 393.815 138.285 C 394.165 135.823, 394.516 135.955, 381.140 133.521 C 371.340 131.738, 369.332 131.653, 368.509 132.986 M 234.007 134.534 C 224.927 138.624, 220.710 147.211, 224.447 154 C 225.204 155.375, 229.547 158.975, 234.098 162 C 238.649 165.025, 243.277 168.738, 244.382 170.250 L 246.391 173 244.346 175.750 C 241.103 180.114, 237.037 179.951, 233.133 175.301 C 223.322 163.618, 224.141 164.302, 222.507 166.424 C 220.074 169.583, 219.562 174.683, 221.397 177.484 C 225.087 183.115, 237.545 185.640, 246.675 182.608 C 251.872 180.882, 257.294 176.109, 258.462 172.234 C 260.139 166.668, 253.371 157.739, 243.849 152.958 C 235.181 148.605, 232.826 144.174, 236.977 140.023 C 239.588 137.412, 241.481 138.174, 247.152 144.121 C 254.514 151.841, 256.439 150.386, 253.828 139.076 C 252.794 134.594, 252.355 133.999, 250.078 133.991 C 248.660 133.987, 245.250 133.753, 242.500 133.472 C 239.134 133.128, 236.359 133.475, 234.007 134.534 M 284.308 163.010 C 279.370 164.999, 277.369 172.965, 281.205 175.366 C 282.546 176.205, 283.454 175.922, 285.455 174.042 C 287.500 172.121, 288 170.703, 288 166.826 C 288 161.762, 287.833 161.590, 284.308 163.010 M 438.888 163.500 C 435.659 165.254, 433.663 169.809, 434.558 173.377 C 435.066 175.399, 435.697 175.930, 437.116 175.531 C 438.152 175.239, 439.900 174.745, 441 174.433 C 442.711 173.947, 443 173.009, 443 167.933 C 443 164.670, 442.663 162.018, 442.250 162.040 C 441.837 162.062, 440.325 162.719, 438.888 163.500" stroke="none" fill="#30302e" fill-rule="evenodd"/></svg>