<svg xmlns="http://www.w3.org/2000/svg" width="382" height="479" viewBox="0 0 382 479" version="1.1"><path d="M 150 5.168 C 150 11.966, 152.359 21.825, 155.645 28.760 C 158.281 34.323, 160.292 36.975, 164.246 40.100 C 170.100 44.727, 180.862 50.395, 185.845 51.476 C 189.131 52.188, 189.179 52.275, 188.533 56.350 C 187.413 63.425, 186.772 156.970, 187.793 164.500 C 189.112 174.234, 188.286 176, 182.414 176 L 177.779 176 178.476 154.750 C 179.536 122.460, 177.040 104.976, 169.421 91.310 C 165.224 83.784, 161.019 80.154, 150.321 74.820 C 143.787 71.563, 140.715 70.641, 135.050 70.236 C 129.052 69.807, 127.636 70.019, 125.872 71.614 C 124.067 73.245, 123.871 74.226, 124.417 78.879 C 125.067 84.422, 129.730 94.841, 134.969 102.455 C 140.366 110.299, 147.778 115.525, 157.006 117.993 C 159.478 118.655, 162.063 119.657, 162.750 120.220 C 163.695 120.995, 164 127.934, 164 148.622 L 164 176 134.200 176 C 112.356 176, 104.080 176.320, 103.200 177.200 C 101.938 178.462, 101.574 184.727, 102.607 187.418 C 103.154 188.845, 112.217 189, 194.907 189 C 264.890 189, 286.884 188.716, 287.800 187.800 C 289.490 186.110, 289.316 178.508, 287.555 177.046 C 286.466 176.142, 280.115 176.023, 261.752 176.563 C 248.355 176.957, 234.813 176.957, 231.660 176.563 L 225.926 175.847 226.713 160.173 C 227.610 142.315, 227.735 120.012, 227 109.021 L 226.500 101.541 232.500 99.226 C 243.957 94.805, 246.372 93.518, 249.764 90.026 C 258.436 81.096, 267.041 58.483, 264.393 51.582 C 263.027 48.022, 249.205 50.695, 237.592 56.763 C 221.334 65.259, 214.414 77.463, 210.936 103.772 C 210.082 110.230, 209.867 122.617, 210.228 144.575 L 210.745 176.106 207.338 175.803 L 203.930 175.500 203.526 111.500 C 203.082 41.197, 202.948 39.476, 196.929 27.220 C 195.233 23.767, 191.651 18.747, 188.970 16.065 C 181.279 8.374, 165.789 2, 154.790 2 C 150.078 2, 150 2.052, 150 5.168 M 292.190 36.026 C 286.536 39.473, 284.565 46.923, 287.615 53.318 C 292.055 62.630, 306.976 62.891, 311.322 53.734 C 317.359 41.013, 304.115 28.755, 292.190 36.026 M 296.094 36.306 C 288.330 39.027, 285.813 49.064, 291.425 54.922 C 295.231 58.894, 300.220 59.875, 304.607 57.512 C 310.824 54.164, 312.772 44.770, 308.293 39.738 C 306.834 38.099, 300.897 34.833, 299.782 35.056 C 299.627 35.087, 297.967 35.650, 296.094 36.306 M 294 46.886 C 294 50.734, 294.450 54.160, 295 54.500 C 295.583 54.861, 296 53.844, 296 52.059 C 296 47.432, 299.891 48.409, 302.903 53.791 C 303.424 54.722, 304.170 55.164, 304.560 54.773 C 304.951 54.382, 304.580 53.008, 303.736 51.720 C 302.349 49.603, 302.359 49.116, 303.839 46.678 C 306.235 42.728, 304.514 40.580, 298.648 40.195 L 294 39.890 294 46.886 M 296.362 42.500 C 295.582 44.531, 296.634 47, 298.277 47 C 299.015 47, 300.491 46.325, 301.559 45.500 C 303.480 44.015, 303.480 43.985, 301.559 42.500 C 300.491 41.675, 299.015 41, 298.277 41 C 297.540 41, 296.678 41.675, 296.362 42.500 M 42.124 220.097 C 18.182 223.755, 5.471 236.500, 8.967 253.342 C 11.913 267.533, 24.746 276.155, 46.339 278.451 C 53.861 279.251, 57 281.297, 57 285.400 C 57 287.453, 56.278 287.974, 52.016 288.996 C 46.215 290.388, 40.557 289.797, 27.023 286.388 C 15.242 283.420, 14.890 283.424, 11.924 286.581 C 9.943 288.690, 9.500 290.204, 9.500 294.871 C 9.500 299.803, 9.942 301.139, 12.745 304.678 C 19.112 312.717, 30.292 315.585, 51.927 314.731 C 80.861 313.588, 90.912 306.176, 91.829 285.307 C 92.183 277.269, 91.968 275.685, 90.121 272.696 C 85.907 265.877, 75.266 260.532, 56 255.556 C 45.330 252.801, 43.455 252.021, 43.189 250.232 C 42.457 245.291, 53.313 244.275, 72.390 247.499 C 84.919 249.616, 84.591 249.759, 87.536 240.893 C 89.006 236.466, 89.002 235.807, 87.493 232.626 C 82.931 223.013, 61.596 217.121, 42.124 220.097 M 249.561 220.472 C 239.535 222.238, 228.211 226.340, 223.056 230.074 C 215.495 235.552, 215.500 235.522, 215.500 271 C 215.500 299.499, 215.674 302.850, 217.327 306.172 C 220.015 311.576, 224.437 313, 238.520 313 L 250 313 250 280.559 C 250 260.930, 250.379 247.884, 250.959 247.525 C 251.487 247.199, 254.844 246.659, 258.420 246.325 C 266.115 245.607, 269.326 247.142, 271.622 252.638 C 272.868 255.619, 272.906 258.809, 271.886 274.810 C 270.454 297.271, 271.248 303.116, 276.516 308.869 L 279.841 312.500 292.921 312.829 L 306 313.159 306 280.638 C 306 257.988, 306.335 247.911, 307.104 247.435 C 308.795 246.391, 320.490 245.655, 323.480 246.406 C 328.364 247.631, 329 251.294, 329.002 278.218 C 329.003 299.332, 329.231 302.957, 330.752 306 C 333.650 311.803, 337.543 313.072, 351.500 312.764 L 363.500 312.500 363.442 279 C 363.386 246.845, 363.295 245.274, 361.168 239.879 C 355.912 226.544, 342.310 219.907, 320 219.791 C 311.695 219.748, 309.395 220.149, 301.710 222.980 C 292.215 226.478, 292.075 226.475, 281.199 222.538 C 272.163 219.267, 260.664 218.516, 249.561 220.472 M 135.608 221.457 C 122.582 225.206, 109.511 235.095, 104.519 244.977 C 99.606 254.702, 98.855 269.396, 102.621 282.107 C 106.947 296.710, 118.474 307.390, 135.500 312.569 C 144.415 315.281, 162.143 315.075, 171.701 312.149 C 185.465 307.935, 195.686 298.883, 200.898 286.293 C 204.325 278.012, 204.993 261.098, 202.235 252.396 C 197.784 238.350, 187.804 228.542, 172.877 223.544 C 165.978 221.234, 162.383 220.678, 152.500 220.394 C 144.231 220.157, 138.979 220.487, 135.608 221.457 M 147.728 245.986 C 142.730 246.922, 139.425 250.205, 137.427 256.219 C 134.767 264.229, 135.169 272.001, 138.589 278.647 C 142.581 286.407, 145.644 288.500, 153.008 288.500 C 158.152 288.500, 159.254 288.133, 162.024 285.500 C 166.084 281.639, 167.814 278.252, 169.046 271.756 C 171.978 256.296, 161.341 243.438, 147.728 245.986 M 155.093 331.062 C 152.669 331.550, 148.296 332.644, 145.373 333.494 C 140.312 334.965, 140.112 335.151, 141.141 337.409 C 141.735 338.713, 143.302 340.359, 144.623 341.066 C 147.551 342.633, 149.267 347.915, 148.826 354 L 148.500 358.500 75.718 358.500 C -4.488 358.500, 1.047 358.037, 1.015 364.750 L 1 368 74.961 368 L 148.921 368 149.211 412.583 L 149.500 457.166 152.727 460.048 C 161.011 467.448, 178.706 467.128, 182.175 459.516 C 183.813 455.921, 182.742 454.568, 177.115 453.126 C 167.614 450.691, 168 452.628, 168 407.365 L 168 368 180.981 368 L 193.962 368 194.612 370.591 C 195.257 373.160, 194.586 408.062, 193.393 434 C 192.488 453.674, 194.463 458.979, 204.421 463.616 C 215.188 468.629, 228.582 464.645, 227.807 456.658 C 227.529 453.802, 227.117 453.447, 223.500 452.945 C 217.895 452.168, 215.386 450.546, 214.105 446.872 C 213.374 444.773, 213 430.907, 213 405.851 L 213 368 293.500 368 L 374 368 374 363.975 C 374 360.509, 373.618 359.803, 371.250 358.887 C 369.382 358.165, 346.199 357.890, 299 358.032 C 260.775 358.146, 225.787 358.186, 221.250 358.120 L 213 358 213 344 L 213 330 208.065 330 C 200.776 330, 188.718 332.756, 187.212 334.766 C 185.305 337.312, 186.113 340.445, 188.775 340.823 C 190.026 341, 191.675 342.125, 192.440 343.323 C 193.613 345.161, 194.579 352.755, 194.129 356.602 C 193.965 358.003, 178.874 359.219, 172.496 358.344 L 167.758 357.695 168.129 344.098 L 168.500 330.500 164 330.337 C 161.525 330.247, 157.517 330.574, 155.093 331.062 M 330.651 376.250 C 328.882 380.431, 326.908 382.123, 319.220 386.051 C 312.267 389.605, 305.722 396.284, 303.959 401.626 C 302.119 407.200, 303.152 408.367, 309.358 407.727 C 312.281 407.425, 316.473 406.639, 318.672 405.980 C 322.446 404.849, 322.723 404.498, 323.586 399.732 C 324.778 393.146, 326.310 392.233, 333.598 393.761 C 336.728 394.418, 339.430 395.097, 339.603 395.270 C 339.777 395.443, 340.222 399.222, 340.593 403.668 L 341.267 411.751 335.883 413.501 C 332.923 414.463, 326.633 417.229, 321.906 419.646 C 302.786 429.425, 296.879 439.597, 304.510 449.602 C 307.357 453.334, 313.624 457, 317.159 457 C 318.390 457, 323.804 455.556, 329.189 453.790 C 335.895 451.593, 339.305 450.905, 340.009 451.609 C 340.574 452.174, 341.734 456.631, 342.586 461.512 C 344.813 474.271, 346.030 476.727, 350.543 477.574 C 354.628 478.340, 369.498 477.598, 372.250 476.490 C 373.475 475.997, 374 474.675, 374 472.080 L 374 468.374 369.281 468.437 C 365.094 468.493, 364.412 468.190, 363.225 465.747 C 360.456 460.045, 359.780 450.632, 360.369 425.960 C 360.742 410.321, 360.580 400.064, 359.923 397.682 C 358.431 392.280, 353.693 387.433, 346.590 384.043 C 339.967 380.882, 337.648 378.851, 336.551 375.250 C 335.515 371.850, 332.282 372.398, 330.651 376.250 M 100.946 377.590 C 99.051 379.564, 94.242 382.977, 90.260 385.174 C 82.790 389.296, 76.399 395.532, 73.602 401.426 C 70.112 408.781, 72.460 410.053, 83.854 406.979 L 91.769 404.843 92.417 400.796 C 93.528 393.845, 94.400 393, 100.463 393 C 105.052 393, 106.154 393.380, 107.862 395.552 C 108.988 396.983, 110.170 400.512, 110.555 403.590 C 111.378 410.185, 110.222 411.903, 103.201 414.514 C 95.603 417.340, 82.821 424.218, 79.107 427.479 C 74.589 431.446, 71.649 438.071, 72.529 442.299 C 73.590 447.392, 77.805 453.848, 81.223 455.615 C 85.798 457.981, 93.279 456.903, 102.263 452.582 C 106.359 450.612, 110 449, 110.355 449 C 110.710 449, 110.999 450.238, 110.999 451.750 C 110.998 453.262, 112.198 459.362, 113.665 465.304 C 115.637 473.289, 116.848 476.384, 118.308 477.165 C 119.476 477.790, 124.356 478.058, 130.262 477.820 C 139.742 477.440, 140.364 477.278, 142.668 474.600 C 144.002 473.049, 144.924 471.267, 144.718 470.640 C 144.512 470.013, 141.995 469.363, 139.126 469.196 C 134.547 468.929, 133.768 468.563, 132.755 466.196 C 132.016 464.471, 131.366 452.155, 130.949 432 C 130.426 406.679, 129.971 399.485, 128.633 395.325 C 126.664 389.208, 123.094 385.856, 116.061 383.520 C 111.482 381.999, 106 377.315, 106 374.923 C 106 373.161, 104.374 374.019, 100.946 377.590 M 229.494 382.009 C 228.603 383.451, 229.909 387.003, 232.659 390.614 C 234.880 393.531, 240.757 408.485, 251.981 439.780 C 257.088 454.017, 258.945 457, 262.703 457 C 266.284 457, 269.328 453.028, 276.419 439.103 C 279.949 432.172, 286.450 420.739, 290.866 413.697 C 302.759 394.735, 305.909 384.768, 300.444 383.397 C 296.376 382.376, 281.321 383.488, 279.573 384.939 C 276.460 387.523, 278.245 393, 282.200 393 C 284.547 393, 284.512 395.548, 282.066 402.782 C 279.457 410.497, 270.065 430, 268.958 430 C 268.470 430, 267.615 429.150, 267.059 428.111 C 265.665 425.505, 258 399.113, 258 396.916 C 258 395.172, 258.664 394.817, 264.250 393.574 C 266.598 393.051, 267 392.459, 267 389.526 C 267 386.335, 266.733 386.046, 263.250 385.460 C 261.188 385.113, 254.865 383.968, 249.199 382.915 C 237.831 380.802, 230.450 380.462, 229.494 382.009 M 33.500 382.935 C 28.824 384.073, 24.837 386.470, 20.662 390.654 C 16.105 395.220, 14 399.804, 14 405.162 C 14 413.178, 18.314 418.047, 32.500 426.041 C 39.112 429.767, 48 438.029, 48 440.450 C 48 441.299, 46.373 443.796, 44.384 445.997 C 38.022 453.038, 32.131 451.041, 24.436 439.234 C 19.735 432.021, 17.031 429, 15.277 429 C 13.277 429, 10.047 436.814, 10.022 441.715 C 10.005 445.034, 10.669 446.692, 13.145 449.512 C 18.184 455.252, 21.798 456.372, 35.500 456.440 C 46.661 456.496, 47.896 456.306, 53.161 453.720 C 64.502 448.150, 69.121 439.342, 65.476 430.233 C 63.167 424.460, 54.050 416.289, 44.200 411.165 C 34.751 406.249, 32 403.266, 32 397.938 C 32 395.032, 32.616 393.661, 34.635 392.073 C 36.084 390.933, 38.042 390, 38.985 390 C 41.618 390, 48.458 395.387, 50.956 399.429 C 53.020 402.769, 57.443 406, 59.950 406 C 61.427 406, 61.199 397.629, 59.531 390.650 C 58.763 387.433, 57.969 384.636, 57.767 384.434 C 57.328 383.995, 40.147 381.976, 38 382.111 C 37.175 382.162, 35.150 382.533, 33.500 382.935 M 104 426.798 C 99.661 428.908, 96.856 434.124, 97.226 439.398 C 97.559 444.133, 99.712 445.844, 103.595 444.462 C 108.071 442.868, 110.357 438.763, 110.820 431.489 C 111.289 424.117, 110.554 423.611, 104 426.798 M 332.201 427.969 C 327.835 431.132, 326.546 434.488, 327.173 441.067 C 327.496 444.455, 327.557 444.496, 331.876 444.218 C 339.523 443.724, 340 443.093, 340 433.465 C 340 423.575, 339.122 422.956, 332.201 427.969" stroke="none" fill="#30302e" fill-rule="evenodd"/></svg>